<?xml version="1.0" encoding="UTF-8"?>
<svg xmlns="http://www.w3.org/2000/svg" xmlns:xlink="http://www.w3.org/1999/xlink" width="48pt" height="48pt" viewBox="0 0 48 48" version="1.1">
<g id="surface1">
<path style=" stroke:none;fill-rule:nonzero;fill:#808080;fill-opacity:1;" d="M 24 4 C 22.398438 4 21 5.398438 21 7 L 21 8.375 C 14.6875 9.742188 10 15.242188 10 22 L 10 31 L 6 35.625 L 6 38 L 42 38 L 42 35.625 L 38 31 L 38 22 C 38 15.242188 33.3125 9.742188 27 8.375 L 27 7 C 27 5.398438 25.601563 4 24 4 Z M 20 40 C 20 42.203125 21.796875 44 24 44 C 26.203125 44 28 42.203125 28 40 Z "/>
</g>
</svg>
